<mxfile host="app.diagrams.net" modified="2023-06-28T05:18:25.396Z" agent="Mozilla/5.0 (Windows NT 10.0; Win64; x64) AppleWebKit/537.36 (KHTML, like Gecko) Chrome/114.0.0.0 Safari/537.36" version="21.5.1" etag="K3mWkL3p3QZv4qwojXE8" type="github">
  <diagram name="Page-1" id="87ZkGZSKprPE7Jpp-hti">
    <mxGraphModel>
      <root>
        <mxCell id="0" />
        <mxCell id="1" parent="0" />
      </root>
    </mxGraphModel>
  </diagram>
</mxfile>
